<!DOCTYPE svg PUBLIC "-//W3C//DTD SVG 20010904//EN" "http://www.w3.org/TR/2001/REC-SVG-20010904/DTD/svg10.dtd">
<svg version="1.0" xmlns="http://www.w3.org/2000/svg" width="251px" height="97px" viewBox="0 0 2510 970" preserveAspectRatio="xMidYMid meet">
<g id="layer101" fill="#045544" stroke="none">
 <path d="M2067 880 c6 -22 29 -27 36 -7 4 10 6 10 6 0 1 -18 251 -19 251 -1 0 9 3 9 12 0 18 -18 38 -14 38 8 0 19 -7 20 -174 20 -169 0 -174 -1 -169 -20z"/>
 <path d="M978 840 c-7 -11 -21 -20 -30 -20 -14 0 -18 -9 -19 -37 -1 -39 -3 -38 -13 10 -8 34 -43 38 -49 5 l-4 -23 -2 23 c-1 18 -6 23 -23 20 -20 -3 -23 -8 -20 -38 2 -26 0 -31 -7 -20 -6 8 -11 25 -11 38 0 15 -6 22 -20 22 -11 0 -20 -5 -20 -12 0 -9 -3 -9 -12 0 -15 15 -65 16 -74 1 -4 -8 -9 -8 -17 0 -19 19 -65 13 -77 -10 -26 -48 25 -104 74 -81 17 8 27 7 35 -1 8 -8 19 -8 43 1 18 7 36 8 42 3 6 -5 32 -7 59 -5 37 3 47 1 47 -11 0 -9 9 -15 25 -15 19 0 25 5 25 21 0 11 4 18 10 14 5 -3 7 -12 4 -20 -8 -20 4 -35 22 -28 9 3 14 13 11 24 -6 21 8 35 18 20 8 -14 75 -8 84 7 6 10 11 10 21 -3 17 -20 43 -19 63 3 34 37 11 92 -37 92 -26 0 -41 -14 -49 -45 -3 -12 -5 -5 -6 17 0 20 -8 44 -17 52 -22 22 -61 20 -76 -4z m-318 -70 c0 -5 -9 -10 -19 -10 -11 0 -23 5 -26 10 -4 6 5 10 19 10 14 0 26 -4 26 -10z m371 -3 c-1 -12 -15 -9 -19 4 -3 6 1 10 8 8 6 -3 11 -8 11 -12z"/>
 <path d="M1228 795 c-10 -22 -8 -30 9 -53 12 -15 30 -27 42 -26 16 0 21 -5 21 -23 0 -18 5 -23 26 -23 23 0 26 3 22 28 -4 28 -3 28 25 18 25 -10 31 -8 48 13 14 17 19 19 19 7 0 -9 3 -16 8 -17 4 0 18 -2 32 -4 37 -5 60 4 60 23 0 13 4 11 16 -7 10 -14 23 -21 35 -18 26 7 30 -35 4 -48 -11 -6 -29 -25 -41 -42 l-22 -33 -38 30 c-51 42 -81 48 -106 22 l-20 -20 -36 24 c-41 29 -65 25 -104 -16 -26 -28 -26 -28 -45 -8 -10 11 -31 27 -47 35 -26 14 -31 13 -55 -5 -28 -21 -32 -50 -17 -122 6 -29 1 -24 -28 30 -60 110 -110 137 -145 80 -16 -27 -20 -29 -31 -15 -18 21 -64 45 -88 45 -11 0 -25 -7 -32 -15 -11 -13 -15 -12 -37 5 -34 26 -66 25 -99 -4 -24 -20 -28 -32 -32 -88 l-4 -65 -27 24 c-23 22 -33 24 -76 20 -27 -4 -61 -9 -75 -12 -24 -6 -28 -2 -49 49 -21 52 -60 96 -84 96 -22 0 -86 -78 -97 -119 -10 -38 -9 -45 7 -63 14 -16 26 -19 55 -14 32 5 38 3 38 -11 0 -9 -12 -29 -27 -45 -23 -25 -25 -30 -14 -54 10 -23 16 -26 44 -21 l33 5 19 -85 c14 -67 23 -87 39 -93 37 -15 -9 -12 -76 6 -33 8 -79 14 -101 12 -41 -3 -42 -4 -42 -38 0 -28 6 -38 34 -57 31 -21 45 -23 163 -23 148 0 172 8 218 71 37 52 54 131 45 215 l-7 65 58 -61 c33 -34 71 -68 86 -76 35 -18 85 -18 95 0 4 8 17 15 28 17 32 6 31 57 -4 130 -17 34 -31 68 -31 76 0 39 41 -8 108 -123 46 -79 63 -97 84 -89 21 8 39 51 31 72 -5 13 2 10 26 -9 76 -65 134 -2 102 110 -17 56 24 31 58 -37 29 -56 103 -119 155 -132 28 -7 46 -17 46 -26 0 -20 40 -112 63 -146 24 -35 52 -33 80 5 l20 27 -57 171 c-32 94 -56 174 -52 177 9 10 44 -25 101 -102 86 -117 117 -145 158 -145 41 0 44 3 48 50 2 19 11 46 21 59 10 13 18 39 18 57 0 19 3 34 6 34 3 0 42 -38 87 -85 64 -66 88 -85 109 -85 33 0 48 24 48 75 0 52 -25 95 -55 95 -14 0 -25 -5 -25 -12 0 -20 -27 13 -45 55 -8 20 -12 37 -8 37 4 0 42 -23 85 -51 69 -45 78 -55 83 -88 18 -117 29 -162 52 -213 44 -98 94 -123 135 -67 l20 26 -40 99 c-40 99 -74 204 -67 204 2 0 21 -32 41 -71 57 -108 108 -151 142 -117 33 33 4 105 -86 213 -56 66 -54 88 3 36 32 -29 53 -41 75 -41 27 0 30 3 30 34 0 27 -9 42 -53 83 -29 28 -67 58 -84 66 -27 14 -32 14 -52 1 -11 -8 -21 -23 -21 -32 0 -13 -6 -11 -25 11 -14 15 -32 27 -39 27 -19 0 -46 -34 -46 -58 0 -27 -5 -27 -38 -3 -50 35 -112 62 -147 63 -45 2 -88 -27 -83 -55 4 -20 1 -22 -36 -18 -27 2 -52 13 -73 31 -17 16 -41 31 -52 35 -16 5 -21 15 -21 41 0 32 1 34 16 20 19 -20 34 -20 62 0 24 16 28 44 12 75 -14 25 -75 26 -89 2 -10 -17 -10 -17 -11 0 0 13 -9 17 -38 17 -21 0 -43 -5 -50 -12 -9 -9 -12 -9 -12 0 0 7 -11 12 -24 12 -23 0 -24 -3 -19 -37 4 -26 2 -35 -5 -28 -6 6 -12 21 -14 35 -2 17 -10 26 -25 28 -14 2 -23 -2 -23 -9 0 -10 -3 -10 -12 -1 -18 18 -65 15 -77 -5 -10 -17 -10 -17 -11 0 0 14 -9 17 -45 17 -39 0 -47 -4 -57 -25z m172 -25 c0 -5 -7 -10 -15 -10 -8 0 -15 5 -15 10 0 6 7 10 15 10 8 0 15 -4 15 -10z m285 -240 c14 -26 14 -33 2 -45 -12 -11 -16 -8 -31 21 -20 43 -20 54 -1 54 8 0 22 -14 30 -30z m-968 -45 c37 -68 39 -77 17 -68 -22 8 -84 93 -84 115 0 38 35 13 67 -47z m618 47 c18 -13 34 -38 50 -76 15 -35 15 -37 -2 -27 -37 20 -89 92 -76 105 8 8 16 7 28 -2z m-869 -100 c37 -25 45 -122 15 -188 -20 -43 -54 -74 -81 -73 -9 0 -6 4 8 9 19 8 22 16 22 67 0 32 -6 86 -13 120 -14 64 -11 71 23 72 8 0 20 -3 26 -7z"/>
 <path d="M1800 818 c-7 -37 -7 -98 0 -98 6 0 10 -7 10 -16 0 -10 7 -14 23 -12 12 2 21 9 20 16 -4 19 22 14 42 -8 18 -20 55 -28 55 -12 0 4 -6 14 -12 21 -11 10 -10 11 5 6 14 -6 17 -1 17 33 0 24 -7 47 -16 56 -23 24 -69 20 -87 -6 l-16 -23 0 23 c-1 15 -7 22 -21 22 -11 0 -20 -1 -20 -2z m120 -69 c0 -17 -4 -28 -10 -24 -5 3 -10 17 -10 31 0 13 5 24 10 24 6 0 10 -14 10 -31z"/>
 <path d="M2017 799 c-18 -25 -11 -55 16 -74 27 -19 42 -19 61 1 15 14 17 14 32 -1 11 -11 25 -14 44 -10 20 4 29 2 33 -9 4 -9 16 -16 28 -16 14 0 19 5 16 14 -10 25 21 26 37 0 9 -13 26 -24 38 -24 19 0 20 2 6 18 -13 15 -13 19 2 33 16 15 18 14 29 -3 7 -12 21 -18 34 -16 19 3 22 9 22 53 l0 50 -75 2 c-56 2 -79 -2 -92 -14 -17 -15 -18 -15 -18 0 0 10 -8 17 -20 17 -11 0 -20 -5 -20 -12 0 -9 -3 -9 -12 0 -17 17 -55 15 -66 -4 -8 -15 -10 -15 -15 0 -9 24 -63 21 -80 -5z"/>
 </g>
<g id="layer102" fill="#f69045" stroke="none">
 <path d="M210 642 c-50 -50 -69 -115 -43 -144 14 -16 26 -19 55 -14 32 5 38 3 38 -11 0 -9 -12 -29 -27 -45 -23 -25 -25 -30 -14 -54 10 -23 16 -26 44 -21 l33 5 19 -85 c14 -67 23 -87 39 -93 37 -15 -9 -12 -76 6 -33 8 -79 14 -101 12 -41 -3 -42 -4 -42 -38 0 -28 6 -38 34 -57 31 -21 45 -23 163 -23 148 0 172 8 218 71 37 52 54 131 45 215 l-7 65 58 -61 c33 -34 71 -68 86 -76 35 -18 85 -18 95 0 4 8 17 15 28 17 32 6 31 57 -4 130 -17 34 -31 68 -31 76 0 39 41 -8 108 -123 46 -79 63 -97 84 -89 21 8 39 51 31 72 -5 13 2 10 26 -9 76 -65 134 -2 102 110 -17 56 24 31 58 -37 29 -56 103 -119 155 -132 28 -7 46 -17 46 -26 0 -20 40 -112 63 -146 24 -35 52 -33 80 5 l20 27 -57 171 c-32 94 -56 174 -52 177 9 10 44 -25 101 -102 86 -117 117 -145 158 -145 41 0 44 3 48 50 2 19 11 46 21 59 10 13 18 39 18 57 0 19 3 34 6 34 3 0 42 -38 87 -85 64 -66 88 -85 109 -85 33 0 48 24 48 75 0 52 -25 95 -55 95 -14 0 -25 -5 -25 -12 0 -20 -27 13 -45 55 -8 20 -12 37 -8 37 4 0 42 -23 85 -51 69 -45 78 -55 83 -88 18 -117 29 -162 52 -213 44 -98 94 -123 135 -67 l20 26 -40 99 c-40 99 -74 204 -67 204 2 0 21 -32 41 -71 57 -108 108 -151 142 -117 33 33 4 105 -86 213 -56 66 -54 88 3 36 32 -29 53 -41 75 -41 27 0 30 3 30 34 0 27 -9 42 -53 83 -29 28 -67 58 -84 66 -27 14 -32 14 -52 1 -11 -8 -21 -23 -21 -32 0 -13 -6 -11 -25 11 -14 15 -32 27 -39 27 -19 0 -46 -34 -46 -58 0 -27 -5 -27 -38 -3 -50 35 -112 62 -147 63 -45 2 -88 -27 -83 -55 4 -20 1 -22 -36 -18 -27 2 -52 13 -74 32 -18 16 -36 29 -40 30 -80 12 -103 4 -132 -44 l-17 -27 -38 30 c-52 42 -82 48 -107 22 l-20 -20 -36 24 c-41 29 -65 25 -104 -16 -26 -28 -26 -28 -45 -8 -10 11 -31 27 -47 35 -26 14 -31 13 -55 -5 -28 -21 -32 -50 -17 -122 6 -29 1 -24 -28 30 -60 110 -110 137 -145 80 -16 -27 -20 -29 -31 -15 -18 21 -64 45 -88 45 -11 0 -25 -7 -32 -15 -11 -13 -15 -12 -37 5 -34 26 -66 25 -99 -4 -24 -20 -28 -32 -32 -88 l-4 -65 -27 24 c-23 22 -33 24 -76 20 -27 -4 -61 -9 -75 -12 -24 -6 -28 -2 -49 49 -21 52 -60 96 -84 96 -5 0 -26 -17 -47 -38z m1475 -112 c14 -26 14 -33 2 -45 -12 -11 -16 -8 -31 21 -20 43 -20 54 -1 54 8 0 22 -14 30 -30z m-968 -45 c37 -68 39 -77 17 -68 -22 8 -84 93 -84 115 0 38 35 13 67 -47z m618 47 c18 -13 34 -38 50 -76 15 -35 15 -37 -2 -27 -37 20 -89 92 -76 105 8 8 16 7 28 -2z m-869 -100 c37 -25 45 -122 15 -188 -20 -43 -54 -74 -81 -73 -9 0 -6 4 8 9 19 8 22 16 22 67 0 32 -6 86 -13 120 -14 64 -11 71 23 72 8 0 20 -3 26 -7z"/>
 </g>

</svg>